PathFileType	4	(x/y/z)	A01_PREF_T0017.trc
DataRate	CameraRate	NumFrames	NumMarkers	Units	OrigDataRate	OrigDataStartFrame	OrigNumFrames
240	240	5	48	mm	240	78	309
Frame#	Time	TOP_HEAD			R_AC			L_AC			R_ASIS			L_ASIS			R_PSIS			L_PSIS			SACRAL			L_IC			R_IC			L_GT			R_GT			R_LAT_KNEE			R_MED_KNEE			L_MED_KNEE			L_LAT_KNEE			R_TOE			L_TOE			R_1ST_MET			L_1ST_MET			L_5TH_MET			R_5TH_MET			R_LAT_ANK			R_MED_ANK			L_MED_ANK			L_LAT_ANK			L_HEEL_SUP			R_HEEL_SUP			L_HEEL_LAT			R_HEEL_LAT			L_HEEL_MED			R_HEEL_MED			R_LL_PROX_POST			R_LL_PROX_ANT			R_LL_DIST_ANT			R_LL_DIST_POST			R_THIGH_PROX_POST			R_THIGH_PROX_ANT			R_THIGH_DIST_ANT			R_THIGH_DIST_POST			L_PROS_PROX_ANT			L_PROS_PROX_POST			L_PROS_DIST_POST			L_PROS_DIST_ANT			L_THIGH_PROX_ANT			L_THIGH_PROX_POST			L_THIGH_DIST_POST			L_THIGH_DIST_ANT			
		X1	Y1	Z1	X2	Y2	Z2	X3	Y3	Z3	X4	Y4	Z4	X5	Y5	Z5	X6	Y6	Z6	X7	Y7	Z7	X8	Y8	Z8	X9	Y9	Z9	X10	Y10	Z10	X11	Y11	Z11	X12	Y12	Z12	X13	Y13	Z13	X14	Y14	Z14	X15	Y15	Z15	X16	Y16	Z16	X17	Y17	Z17	X18	Y18	Z18	X19	Y19	Z19	X20	Y20	Z20	X21	Y21	Z21	X22	Y22	Z22	X23	Y23	Z23	X24	Y24	Z24	X25	Y25	Z25	X26	Y26	Z26	X27	Y27	Z27	X28	Y28	Z28	X29	Y29	Z29	X30	Y30	Z30	X31	Y31	Z31	X32	Y32	Z32	X33	Y33	Z33	X34	Y34	Z34	X35	Y35	Z35	X36	Y36	Z36	X37	Y37	Z37	X38	Y38	Z38	X39	Y39	Z39	X40	Y40	Z40	X41	Y41	Z41	X42	Y42	Z42	X43	Y43	Z43	X44	Y44	Z44	X45	Y45	Z45	X46	Y46	Z46	X47	Y47	Z47	X48	Y48	Z48	

78	0.32188	-131.01	1747.2	288.3	-387.87	1563	497.01	-368.39	1543.3	36.03	-396.38	1093.8	491.86	-359.09	1031.4	143.65	-596.75	1087.9	347.99	-578.25	1092.4	216.51	-603.17	1060	280.19	-383.91	1145.3	98.268	-428.86	1201.9	490.62	-418.12	951.31	101.43	-455.71	983.04	529.85	-416.12	577.77	513.36	-365.5	555.7	388.35	-354.83	566.18	337.22	-369.97	564.59	179.75	-619.88	68.587	405.22	-211.97	84.029	273.12	-684.83	119.64	353.92	-293.43	57.567	326.92	-318.13	46.862	196.5	-722.69	128.61	482.26	-746.74	264.23	461.93	-723.55	265.53	362.5	-417.97	128.91	300.01	-447.56	117.41	232.62	-535.77	73.709	273.66	-828.16	314.15	394.42	-522.43	45.615	242.03	-844.73	292.36	426.55	-514.85	44.366	306.62	-840.31	291.68	367.24	-589.82	513.03	501.88	-548.78	458.1	527.56	-594.78	402.15	505.48	-632.39	442.71	489.5	-476.53	837.23	520.73	-412.71	866.97	528.13	-393.88	776.82	532.17	-456.04	749.53	521.35	-328.73	480.58	198.35	-383.52	482.54	186	-393.39	421.38	197.52	-340.18	426.17	207.94	-342.5	816.62	144.07	-412.48	815.06	126.92	-395.18	741.91	142.48	-331.17	744.48	157.54
79	0.32606	-126.13	1748.1	288.52	-383.15	1563.6	497.33	-363.3	1544.1	36.304	-390.94	1094.7	491.55	-353.94	1031.8	143.37	-591.5	1088.6	347.98	-573.04	1093.2	216.47	-597.95	1060.7	280.17	-378.55	1146.1	98.257	-423.61	1202.4	490.61	-413.32	951.81	101.32	-450.09	983.83	529.72	-406.65	578.78	513.37	-355.54	557.17	388.38	-352.91	566.11	337.31	-368.03	564.61	179.86	-601.93	69.2	407.56	-211.86	83.905	273.12	-668.29	117.91	355.74	-293.36	57.534	326.93	-318.11	46.869	196.53	-706.26	127.31	484.02	-733.76	261.85	462.36	-710.67	262.93	362.86	-417.67	129.1	300.05	-447.26	117.72	232.64	-535.6	74.049	273.71	-816.55	309.2	394.35	-522.38	45.902	242.07	-832.59	287.34	426.69	-514.84	44.699	306.6	-828.09	286.16	367.41	-579.66	512.16	502.12	-538.03	457.72	527.82	-583.5	401.25	505.91	-621.5	441.36	489.88	-469.43	837.8	520.69	-405.59	868.02	528.01	-386.24	778.1	532.18	-448.16	750.26	521.4	-327.11	480.43	198.44	-381.89	482.62	186.09	-392	421.49	197.61	-338.77	426.08	208.03	-338.58	816.65	144.14	-408.53	815.57	126.97	-391.72	742.3	142.55	-327.7	744.44	157.61
80	0.33024	-121.25	1749	288.76	-378.4	1564.2	497.65	-358.2	1544.9	36.587	-385.55	1095.6	491.26	-348.81	1032.2	143.11	-586.27	1089.2	347.97	-567.86	1093.9	216.42	-592.75	1061.4	280.15	-373.21	1146.9	98.244	-418.39	1202.8	490.62	-408.53	952.28	101.22	-444.54	984.62	529.6	-397.23	579.79	513.35	-345.63	558.67	388.39	-350.97	566.05	337.4	-366.09	564.63	179.97	-583.9	69.735	409.81	-211.76	83.777	273.12	-651.61	116.09	357.51	-293.29	57.5	326.94	-318.08	46.877	196.57	-689.68	125.88	485.74	-720.61	259.26	462.79	-697.65	260.15	363.23	-417.37	129.29	300.08	-446.95	118.04	232.67	-535.43	74.409	273.76	-804.71	304.03	394.34	-522.32	46.208	242.11	-820.21	282.09	426.9	-514.86	45.057	306.58	-815.63	280.44	367.64	-569.51	511.19	502.31	-527.27	457.28	528.05	-572.18	400.26	506.32	-610.59	439.89	490.23	-462.4	838.38	520.65	-398.58	869.08	527.91	-378.68	779.38	532.17	-440.36	751	521.42	-325.49	480.28	198.53	-380.26	482.7	186.18	-390.61	421.6	197.7	-337.35	425.99	208.12	-334.68	816.66	144.21	-404.6	816.06	127.02	-388.28	742.68	142.62	-324.26	744.38	157.68
81	0.33442	-116.37	1749.9	289.01	-373.62	1564.8	497.96	-353.07	1545.8	36.878	-380.2	1096.5	490.97	-343.68	1032.5	142.85	-581.06	1089.9	347.97	-562.7	1094.6	216.39	-587.57	1062.1	280.13	-367.88	1147.6	98.229	-413.19	1203.3	490.65	-403.75	952.73	101.15	-439.06	985.39	529.51	-387.87	580.8	513.32	-335.79	560.19	388.39	-349	565.98	337.51	-364.14	564.65	180.08	-565.81	70.2	411.97	-211.65	83.645	273.11	-634.81	114.2	359.23	-293.22	57.465	326.95	-318.05	46.884	196.6	-672.97	124.31	487.4	-707.3	256.47	463.24	-684.47	257.19	363.61	-417.06	129.48	300.1	-446.64	118.37	232.71	-535.26	74.788	273.81	-792.65	298.64	394.39	-522.26	46.534	242.16	-807.6	276.63	427.16	-514.89	45.438	306.57	-802.93	274.54	367.92	-559.38	510.13	502.45	-516.5	456.78	528.25	-560.84	399.19	506.71	-599.65	438.31	490.55	-455.44	838.96	520.6	-391.66	870.14	527.82	-371.21	780.66	532.16	-432.64	751.75	521.43	-323.87	480.13	198.63	-378.63	482.77	186.28	-389.22	421.71	197.8	-335.93	425.91	208.22	-330.8	816.65	144.29	-400.69	816.52	127.09	-384.85	743.03	142.71	-320.82	744.3	157.76
82	0.3386	-111.49	1750.7	289.27	-368.81	1565.3	498.26	-347.92	1546.6	37.176	-374.88	1097.3	490.71	-338.56	1032.8	142.61	-575.88	1090.5	347.97	-557.56	1095.2	216.36	-582.42	1062.7	280.12	-362.57	1148.3	98.212	-408.01	1203.7	490.71	-398.99	953.14	101.08	-433.64	986.16	529.43	-378.58	581.81	513.27	-326.04	561.72	388.36	-347.02	565.91	337.62	-362.18	564.68	180.21	-547.67	70.602	414.03	-211.54	83.509	273.1	-617.89	112.25	360.89	-293.15	57.428	326.95	-318.02	46.892	196.63	-656.14	122.64	489	-693.82	253.5	463.7	-671.13	254.07	364.01	-416.75	129.68	300.13	-446.32	118.7	232.74	-535.08	75.187	273.86	-780.36	293.06	394.5	-522.2	46.879	242.21	-794.76	270.98	427.47	-514.95	45.844	306.56	-790	268.47	368.27	-549.27	508.99	502.53	-505.74	456.25	528.41	-549.46	398.06	507.09	-588.69	436.63	490.83	-448.55	839.54	520.55	-384.83	871.2	527.73	-363.81	781.93	532.14	-424.99	752.5	521.44	-322.24	479.99	198.74	-376.99	482.85	186.39	-387.81	421.82	197.9	-334.5	425.82	208.32	-326.92	816.62	144.36	-396.8	816.96	127.16	-381.43	743.37	142.79	-317.4	744.21	157.84
